name rise49.5252peak65.1548fall88.8305.mot
datacolumns 19
datarows 29
range 10.95662200000000 11.00328400000000
endheader
time	ground_force1_vx	ground_force1_vy	ground_force1_vz	ground_force1_px	ground_force1_py	ground_force1_pz	ground_force2_vx	ground_force2_vy	ground_force2_vz	ground_force2_px	ground_force2_py	ground_force2_pz	ground_torque1_x	ground_torque1_y	ground_torque1_z	ground_torque2_x	ground_torque2_y	ground_torque2_z	
10.95662200000000	-8.14967000000000	41.70572800000000	-12.14437800000000	0.34175700000000	0.00000000000000	0.08206700000000	-45.51081100000000	798.37551199999996	-58.40846700000000	0.19763400000000	0.00000000000000	-0.10834500000000	0.00000000000000	-9.22889500000000	0.00000000000000	0.00000000000000	-32.09487000000000	0.00000000000000	
10.95828600000000	-9.09044800000000	48.69506500000000	-13.69207100000000	0.34767900000000	0.00000000000000	0.08278400000000	-46.10798900000000	796.04258700000003	-58.15219000000000	0.19670300000000	0.00000000000000	-0.10831600000000	0.00000000000000	-10.48590100000000	0.00000000000000	0.00000000000000	-32.01611400000000	0.00000000000000	
10.95995500000000	-9.91714000000000	55.72008900000000	-15.11151600000000	0.35312200000000	0.00000000000000	0.08344700000000	-46.71037900000000	793.59005700000000	-57.87177900000000	0.19577900000000	0.00000000000000	-0.10828300000000	0.00000000000000	-11.65731600000000	0.00000000000000	0.00000000000000	-31.93213400000000	0.00000000000000	
10.96162500000000	-10.60741700000000	62.68500700000000	-16.37074000000000	0.35815500000000	0.00000000000000	0.08406600000000	-47.31782800000000	791.01808700000004	-57.56697200000000	0.19486200000000	0.00000000000000	-0.10824700000000	0.00000000000000	-12.71617500000000	0.00000000000000	0.00000000000000	-31.84294700000000	0.00000000000000	
10.96328900000000	-11.14674700000000	69.51815600000000	-17.44832300000000	0.36283500000000	0.00000000000000	0.08464600000000	-47.93014500000000	788.32682699999998	-57.23754100000000	0.19395300000000	0.00000000000000	-0.10820600000000	0.00000000000000	-13.64360200000000	0.00000000000000	0.00000000000000	-31.74857000000000	0.00000000000000	
10.96495700000000	-11.52844300000000	76.17404999999999	-18.33357000000000	0.36720700000000	0.00000000000000	0.08519300000000	-48.54710500000000	785.51640599999996	-56.88329200000000	0.19305300000000	0.00000000000000	-0.10816100000000	0.00000000000000	-14.42913800000000	0.00000000000000	0.00000000000000	-31.64902100000000	0.00000000000000	
10.96662300000000	-11.75305700000000	82.63293100000000	-19.02579000000000	0.37131000000000	0.00000000000000	0.08571000000000	-49.16844000000000	782.58692399999995	-56.50406700000000	0.19216300000000	0.00000000000000	-0.10811200000000	0.00000000000000	-15.07033300000000	0.00000000000000	0.00000000000000	-31.54431600000000	0.00000000000000	
10.96828700000000	-11.82729200000000	88.89828700000000	-19.53286600000000	0.37517700000000	0.00000000000000	0.08620100000000	-49.79384600000000	779.53844600000002	-56.09974700000000	0.19128300000000	0.00000000000000	-0.10805900000000	0.00000000000000	-15.57173900000000	0.00000000000000	0.00000000000000	-31.43447300000000	0.00000000000000	
10.96995500000000	-11.76260200000000	94.99288400000000	-19.86938100000000	0.37883300000000	0.00000000000000	0.08666900000000	-50.42297500000000	776.37099799999999	-55.67024600000000	0.19041600000000	0.00000000000000	-0.10800000000000	0.00000000000000	-15.94350500000000	0.00000000000000	0.00000000000000	-31.31950900000000	0.00000000000000	
10.97162100000000	-11.57364000000000	100.95390399999999	-20.05451300000000	0.38230200000000	0.00000000000000	0.08711700000000	-51.05543500000000	773.08456100000001	-55.21552300000000	0.18956000000000	0.00000000000000	-0.10793700000000	0.00000000000000	-16.19974900000000	0.00000000000000	0.00000000000000	-31.19943800000000	0.00000000000000	
10.97328500000000	-11.27673300000000	106.82775100000001	-20.10992500000000	0.38560300000000	0.00000000000000	0.08754700000000	-51.69079200000000	769.67906600000003	-54.73557400000000	0.18871700000000	0.00000000000000	-0.10786900000000	0.00000000000000	-16.35688500000000	0.00000000000000	0.00000000000000	-31.07427400000000	0.00000000000000	
10.97495500000000	-10.88847100000000	112.66499200000000	-20.05781900000000	0.38875300000000	0.00000000000000	0.08795900000000	-52.32856100000000	766.15439200000003	-54.23043500000000	0.18788900000000	0.00000000000000	-0.10779600000000	0.00000000000000	-16.43205200000000	0.00000000000000	0.00000000000000	-30.94402900000000	0.00000000000000	
10.97662200000000	-10.42452800000000	118.51584000000000	-19.91928100000000	0.39176500000000	0.00000000000000	0.08835700000000	-52.96821200000000	762.51036099999999	-53.70018800000000	0.18707500000000	0.00000000000000	-0.10771800000000	0.00000000000000	-16.44174200000000	0.00000000000000	0.00000000000000	-30.80871200000000	0.00000000000000	
10.97828400000000	-9.89876500000000	124.42640700000000	-19.71299800000000	0.39465300000000	0.00000000000000	0.08874100000000	-53.60916600000000	758.74673700000005	-53.14495400000000	0.18627700000000	0.00000000000000	-0.10763500000000	0.00000000000000	-16.40072900000000	0.00000000000000	0.00000000000000	-30.66832900000000	0.00000000000000	
10.97996000000000	-9.32261600000000	130.43591000000001	-19.45437800000000	0.39742600000000	0.00000000000000	0.08911200000000	-54.25079200000000	754.86322099999995	-52.56490200000000	0.18549600000000	0.00000000000000	-0.10754600000000	0.00000000000000	-16.32129800000000	0.00000000000000	0.00000000000000	-30.52288300000000	0.00000000000000	
10.98161900000000	-8.70478000000000	136.57486200000000	-19.15508100000000	0.40009400000000	0.00000000000000	0.08947100000000	-54.89240900000000	750.85945500000003	-51.96024100000000	0.18473200000000	0.00000000000000	-0.10745200000000	0.00000000000000	-16.21280600000000	0.00000000000000	0.00000000000000	-30.37237400000000	0.00000000000000	
10.98328700000000	-8.05116800000000	142.86421000000001	-18.82290300000000	0.40266500000000	0.00000000000000	0.08982000000000	-55.53328300000000	746.73501699999997	-51.33123000000000	0.18398600000000	0.00000000000000	-0.10735300000000	0.00000000000000	-16.08154500000000	0.00000000000000	0.00000000000000	-30.21679500000000	0.00000000000000	
10.98495000000000	-7.36507600000000	149.31531600000000	-18.46198300000000	0.40514600000000	0.00000000000000	0.09015800000000	-56.17262600000000	742.48942399999999	-50.67817100000000	0.18325900000000	0.00000000000000	-0.10724700000000	0.00000000000000	-15.93085500000000	0.00000000000000	0.00000000000000	-30.05613900000000	0.00000000000000	
10.98662100000000	-6.64752200000000	155.93062399999999	-18.07323500000000	0.40754300000000	0.00000000000000	0.09048700000000	-56.80959900000000	738.12213099999997	-50.00141300000000	0.18255100000000	0.00000000000000	-0.10713700000000	0.00000000000000	-15.76143900000000	0.00000000000000	0.00000000000000	-29.89039000000000	0.00000000000000	
10.98828600000000	-5.89769200000000	162.70484700000000	-17.65495400000000	0.40986000000000	0.00000000000000	0.09080700000000	-57.44330500000000	733.63253499999996	-49.30135200000000	0.18186400000000	0.00000000000000	-0.10702000000000	0.00000000000000	-15.57183400000000	0.00000000000000	0.00000000000000	-29.71953100000000	0.00000000000000	
10.98995300000000	-5.11344600000000	169.62647699999999	-17.20349800000000	0.41210400000000	0.00000000000000	0.09111800000000	-58.07279600000000	729.01997600000004	-48.57843200000000	0.18119800000000	0.00000000000000	-0.10689700000000	0.00000000000000	-15.35894000000000	0.00000000000000	0.00000000000000	-29.54353500000000	0.00000000000000	
10.99162800000000	-4.29183400000000	176.67945399999999	-16.71399800000000	0.41427600000000	0.00000000000000	0.09142100000000	-58.69706700000000	724.28374299999996	-47.83314500000000	0.18055400000000	0.00000000000000	-0.10676900000000	0.00000000000000	-15.11859900000000	0.00000000000000	0.00000000000000	-29.36237500000000	0.00000000000000	
10.99329100000000	-3.42958000000000	183.84483900000001	-16.18102700000000	0.41638200000000	0.00000000000000	0.09171600000000	-59.31506200000000	719.42307600000004	-47.06602600000000	0.17993200000000	0.00000000000000	-0.10663500000000	0.00000000000000	-14.84613800000000	0.00000000000000	0.00000000000000	-29.17601300000000	0.00000000000000	
10.99495400000000	-2.52350100000000	191.10237300000000	-15.59919500000000	0.41842300000000	0.00000000000000	0.09200400000000	-59.92566800000000	714.43717500000002	-46.27766400000000	0.17933200000000	0.00000000000000	-0.10649400000000	0.00000000000000	-14.53686000000000	0.00000000000000	0.00000000000000	-28.98441000000000	0.00000000000000	
10.99661700000000	-1.57085100000000	198.43181600000000	-14.96363500000000	0.42040200000000	0.00000000000000	0.09228400000000	-60.52772400000000	709.32520699999998	-45.46868800000000	0.17875700000000	0.00000000000000	-0.10634800000000	0.00000000000000	-14.18645100000000	0.00000000000000	0.00000000000000	-28.78751700000000	0.00000000000000	
10.99828500000000	-0.56957300000000	205.81403200000000	-14.27036200000000	0.42232100000000	0.00000000000000	0.09255700000000	-61.12001300000000	704.08631300000002	-44.63977900000000	0.17820500000000	0.00000000000000	-0.10619500000000	0.00000000000000	-13.79129100000000	0.00000000000000	0.00000000000000	-28.58528200000000	0.00000000000000	
10.99995000000000	0.48154400000000	213.23176799999999	-13.51652000000000	0.42418200000000	0.00000000000000	0.09282300000000	-61.70127100000000	698.71961999999996	-43.79166100000000	0.17767800000000	0.00000000000000	-0.10603700000000	0.00000000000000	-13.34866200000000	0.00000000000000	0.00000000000000	-28.37764700000000	0.00000000000000	
11.00161500000000	1.58279000000000	220.67015200000000	-12.70049000000000	0.42598700000000	0.00000000000000	0.09308200000000	-62.27018700000000	693.22424999999998	-42.92510300000000	0.17717600000000	0.00000000000000	-0.10587200000000	0.00000000000000	-12.85685800000000	0.00000000000000	0.00000000000000	-28.16454900000000	0.00000000000000	
11.00328400000000	2.73353900000000	228.11691099999999	-11.82191400000000	0.42773500000000	0.00000000000000	0.09333500000000	-62.82540100000000	687.59933300000000	-42.04091800000000	0.17669800000000	0.00000000000000	-0.10570200000000	0.00000000000000	-12.31521100000000	0.00000000000000	0.00000000000000	-27.94591600000000	0.00000000000000	
